<?xml version="1.0" encoding="utf-8"?>
<svg viewBox="0 0 500 500" xmlns="http://www.w3.org/2000/svg">
  <path d="M 464.077 70.599 C 457.719 72.549 451.36 78.145 448.477 84.249 C 446.782 87.895 446.697 89.591 446.273 127.319 L 445.849 166.489 L 441.44 163.522 C 433.725 158.35 422.195 153.093 413.547 150.719 C 401.423 147.413 382.601 146.904 370.053 149.532 C 358.353 151.906 348.603 155.976 338.683 162.589 C 315.792 177.765 300.616 201.589 295.868 229.483 C 294.088 239.911 294.003 259.326 295.698 269.076 C 303.075 310.705 334.868 343.092 376.157 350.892 C 386.247 352.842 406.171 352.588 416.684 350.468 C 437.964 346.144 455.43 336.564 469.588 321.472 C 483.578 306.55 491.886 290.442 496.041 270.094 C 497.482 263.311 497.567 255.681 497.567 176.239 C 497.567 93.067 497.482 89.591 495.956 85.521 C 493.667 79.586 487.817 73.652 482.221 71.532 C 477.473 69.752 468.401 69.328 464.077 70.599 Z M 408.799 196.587 C 434.403 202.606 450.258 227.957 447.036 257.461 C 443.475 289 417.616 309.348 387.518 304.261 C 375.988 302.311 368.697 298.496 360.218 289.933 C 352.673 282.302 348.773 275.605 346.06 265.346 C 344.11 257.885 344.025 242.963 345.89 235.163 C 349.281 220.411 359.879 207.1 373.36 200.487 C 377.344 198.537 382.262 196.672 384.381 196.248 C 390.486 195.061 403.034 195.23 408.799 196.587 Z" stroke="none" style="fill: rgb(144, 190, 109);"/>
  <g transform="matrix(1, 0, 0, 1, -0.368992, 11.112175)">
    <path d="M 242.738 64.066 C 233.497 67.203 226.883 72.883 223.153 81.107 C 215.777 97.301 223.747 115.953 240.788 122.481 C 246.977 124.855 257.829 124.346 263.934 121.464 C 269.275 118.92 276.142 112.053 278.686 106.881 C 285.977 91.79 278.94 72.713 263.51 65.676 C 257.914 63.048 247.994 62.37 242.738 64.066 Z" stroke="none" style="fill: rgb(249, 199, 79);"/>
    <path d="M 245.451 138.42 C 238.075 139.692 231.547 144.694 227.731 151.986 L 225.781 155.801 L 225.357 247.79 C 224.933 333.421 224.849 340.034 223.407 343.595 C 218.914 354.871 210.012 363.519 199.499 366.656 C 198.142 367.08 193.14 367.758 188.392 368.097 C 178.642 368.945 174.572 370.641 169.401 375.898 C 157.107 388.53 162.533 412.354 178.812 417.78 C 185.425 419.985 203.568 419.137 213.912 416.169 C 243.331 407.606 264.866 386.156 273.26 356.821 C 276.821 344.358 277.16 332.065 276.905 241.432 C 276.651 150.29 276.905 155.462 271.564 147.746 C 266.477 140.37 255.879 136.555 245.451 138.42 Z" stroke="none" style="fill: rgb(249, 199, 79);"/>
  </g>
  <path d="M 96.543 147.498 C 83.063 148.43 70.515 151.906 58.899 158.095 C 54.491 160.385 50.845 162.165 50.845 162.08 C 50.76 161.911 49.319 160.045 47.539 157.841 C 42.96 152.076 36.517 149.108 28.717 149.193 C 25.495 149.193 21.171 149.702 19.221 150.295 C 13.71 151.821 7.691 157.163 4.893 162.843 L 2.434 167.761 L 2.434 250 L 2.434 332.24 L 4.469 336.733 C 6.928 342.244 13.286 348.094 18.712 349.959 C 23.715 351.655 31.939 351.655 37.025 349.959 C 41.519 348.433 48.047 343.007 50.082 339.192 C 53.134 333.172 53.219 331.646 53.728 276.707 L 54.152 222.022 L 56.441 217.104 C 62.46 204.302 78.739 195.315 96.119 195.315 C 114.348 195.315 128.676 202.946 135.798 216.341 C 141.139 226.43 141.224 227.109 141.817 283.066 L 142.326 333.935 L 144.869 338.429 C 149.363 346.568 155.806 350.553 165.641 351.146 C 176.748 351.74 185.65 346.653 190.398 336.988 L 192.348 333.088 L 192.348 279.25 C 192.348 226.346 192.348 225.244 190.398 216.68 C 181.326 175.476 150.55 149.617 107.989 147.582 C 104.004 147.413 98.917 147.328 96.543 147.498 Z" stroke="none" style="fill: rgb(249, 65, 68);"/>
</svg>