<?xml version="1.0" standalone="no"?>
<!DOCTYPE svg PUBLIC "-//W3C//DTD SVG 20010904//EN"
 "http://www.w3.org/TR/2001/REC-SVG-20010904/DTD/svg10.dtd">
<svg version="1.0" xmlns="http://www.w3.org/2000/svg"
 width="700.000000pt" height="700.000000pt" viewBox="0 0 700.000000 700.000000"
 preserveAspectRatio="xMidYMid meet">
<metadata>
Created by potrace 1.14, written by Peter Selinger 2001-2017
</metadata>
<g transform="translate(0.000000,700.000000) scale(0.100000,-0.100000)"
fill="#000000" stroke="none">
<path d="M6549 6020 c-97 -12 -182 -68 -248 -164 -41 -59 -47 -108 -50 -424
-7 -535 -10 -757 -10 -760 -1 -1 -27 15 -58 36 -153 104 -370 189 -533 209
-83 10 -339 10 -410 0 -473 -67 -899 -445 -1049 -932 -55 -176 -66 -268 -64
-520 0 -131 6 -193 22 -272 57 -276 188 -518 385 -716 199 -199 432 -325 709
-384 115 -25 555 -24 596 1 3 2 22 7 41 10 60 9 221 66 302 107 419 208 713
620 773 1084 11 79 13 2291 3 2407 -9 105 -29 149 -96 217 -56 57 -120 89
-193 97 -30 3 -56 7 -59 8 -3 1 -30 -1 -61 -4z m-883 -1764 c155 -14 334 -121
442 -262 156 -203 199 -527 105 -788 -138 -384 -512 -559 -920 -432 -115 36
-287 183 -365 312 -74 121 -107 265 -102 448 2 114 8 150 39 241 65 195 213
353 408 437 115 50 214 61 393 44z"/>
<path d="M3366 5935 c-174 -71 -274 -206 -282 -381 -8 -201 124 -382 319 -434
73 -20 211 -9 279 23 69 31 176 134 211 203 118 233 -19 532 -275 599 -78 21
-186 17 -252 -10z"/>
<path d="M1320 4933 c-25 -3 -148 -22 -172 -27 -88 -18 -171 -48 -328 -120 -8
-4 -35 -17 -59 -30 l-44 -22 -71 70 c-90 90 -132 106 -266 103 -81 -2 -104 -7
-152 -30 -68 -33 -127 -95 -166 -174 l-29 -58 1 -1150 1 -1150 27 -55 c36 -73
104 -142 175 -176 50 -25 68 -28 153 -28 84 0 103 3 151 27 69 33 145 106 169
160 10 23 21 67 24 97 9 73 15 426 20 1031 l4 496 32 62 c74 148 256 271 442
297 298 43 558 -73 675 -301 68 -134 70 -154 79 -1040 l6 -590 36 -60 c72
-119 155 -171 289 -178 136 -8 251 47 324 155 22 32 37 58 33 58 -3 0 -1 7 6
15 12 14 17 697 10 1340 -4 280 -31 407 -135 621 -165 339 -469 568 -845 634
-36 7 -75 14 -88 16 -29 6 -269 11 -302 7z"/>
<path d="M3354 4880 c-70 -32 -130 -90 -169 -162 l-29 -53 -2 -530 c-6 -1054
-14 -1981 -20 -2035 -8 -83 -57 -173 -139 -255 -101 -102 -178 -138 -320 -150
-38 -3 -94 -10 -123 -15 -278 -49 -374 -404 -165 -614 66 -67 108 -80 268 -82
216 -3 365 28 545 117 295 144 522 414 613 729 30 104 35 128 44 250 10 123
10 2410 0 2516 -7 86 -17 117 -56 174 -86 128 -296 179 -447 110z"/>
</g>
</svg>
